<svg width="24" height="24" viewBox="0 0 24 24" fill="none" xmlns="http://www.w3.org/2000/svg">
<path d="M9.14453 20H3.5V4H9.5L12 6H20.5V9.71094M19.75 21H15.25C14.0074 21 13 19.9465 13 18.6469C13 17.4924 13.7949 16.5321 14.8436 16.332C14.8148 16.1669 14.8 15.9975 14.8 15.8238C14.8 14.2642 16.0088 13 17.5 13C18.9912 13 20.2 14.2642 20.2 15.8238C20.2 15.9975 20.1852 16.1669 20.1564 16.332C21.2051 16.5321 22 17.4924 22 18.6469C22 19.9465 20.9926 21 19.75 21Z" stroke="black" stroke-width="2" stroke-linecap="round" stroke-linejoin="round"/>
</svg>
